<svg width="24" height="24" viewBox="0 0 24 24" fill="none" xmlns="http://www.w3.org/2000/svg">
<path d="M9.75039 4.875C8.70039 5.175 7.72539 5.775 6.90039 6.525L4.65039 5.25L2.40039 9.15L4.65039 10.425C4.57539 10.875 4.50039 11.475 4.50039 12C4.50039 12.525 4.57539 13.125 4.65039 13.65L2.40039 14.925L4.65039 18.825L6.90039 17.55C7.72539 18.3 8.62539 18.825 9.75039 19.2V21.75H14.2504V19.125C15.3004 18.825 16.2754 18.225 17.1004 17.475L19.3504 18.75L21.6004 14.85L19.3504 13.575C19.5004 13.05 19.5004 12.525 19.5004 11.925C19.5004 11.325 19.4254 10.8 19.3504 10.275L21.6004 9L19.3504 5.1L17.1004 6.375C16.2754 5.625 15.3754 5.1 14.2504 4.725V2.25H9.75039" stroke="white" stroke-width="2" stroke-miterlimit="10" stroke-linecap="round" stroke-linejoin="round"/>
<path d="M12 15.75C14.0711 15.75 15.75 14.0711 15.75 12C15.75 9.92893 14.0711 8.25 12 8.25C9.92893 8.25 8.25 9.92893 8.25 12C8.25 14.0711 9.92893 15.75 12 15.75Z" stroke="#DA246A" stroke-width="2" stroke-miterlimit="10" stroke-linecap="round" stroke-linejoin="round"/>
</svg>
