<svg width="21" height="21" viewBox="0 0 21 21" fill="none" xmlns="http://www.w3.org/2000/svg">
<path d="M4.25 3.625H16.75C17.4375 3.625 18 4.1875 18 4.875V17.375C18 18.0625 17.4375 18.625 16.75 18.625H4.25C3.5625 18.625 3 18.0625 3 17.375V6.125" stroke="#2158D0" stroke-width="2" stroke-miterlimit="10" stroke-linecap="round" stroke-linejoin="round"/>
<path d="M13.625 2.375V4.875" stroke="#2158D0" stroke-width="2" stroke-miterlimit="10" stroke-linecap="round" stroke-linejoin="round"/>
<path d="M7.375 2.375V4.875" stroke="#2158D0" stroke-width="2" stroke-miterlimit="10" stroke-linecap="round" stroke-linejoin="round"/>
<path d="M3 7.375H15.375" stroke="#2158D0" stroke-width="2" stroke-miterlimit="10" stroke-linecap="round" stroke-linejoin="round"/>
<path d="M13.3125 11.125C13.3125 10.625 13.75 10.1875 14.25 10.1875C14.75 10.1875 15.1875 10.625 15.1875 11.125C15.1875 11.625 14.75 12.0625 14.25 12.0625C13.75 12.0625 13.3125 11.625 13.3125 11.125ZM9.5625 11.125C9.5625 10.625 10 10.1875 10.5 10.1875C11 10.1875 11.4375 10.625 11.4375 11.125C11.4375 11.625 11 12.0625 10.5 12.0625C10 12.0625 9.5625 11.625 9.5625 11.125Z" fill="#20A4B8"/>
<path d="M13.3125 14.875C13.3125 14.375 13.75 13.9375 14.25 13.9375C14.75 13.9375 15.1875 14.375 15.1875 14.875C15.1875 15.375 14.75 15.8125 14.25 15.8125C13.75 15.8125 13.3125 15.375 13.3125 14.875ZM9.5625 14.875C9.5625 14.375 10 13.9375 10.5 13.9375C11 13.9375 11.4375 14.375 11.4375 14.875C11.4375 15.375 11 15.8125 10.5 15.8125C10 15.8125 9.5625 15.375 9.5625 14.875ZM5.8125 14.875C5.8125 14.375 6.25 13.9375 6.75 13.9375C7.25 13.9375 7.6875 14.375 7.6875 14.875C7.6875 15.375 7.25 15.8125 6.75 15.8125C6.25 15.8125 5.8125 15.375 5.8125 14.875Z" fill="#20A4B8"/>
</svg>
