<svg width="24" height="25" viewBox="0 0 24 25" fill="none" xmlns="http://www.w3.org/2000/svg">
<path d="M12 22.2881C6.6 22.2881 2.25 17.9381 2.25 12.5381C2.25 7.13809 6.6 2.78809 12 2.78809C17.4 2.78809 21.75 7.13809 21.75 12.5381C21.75 13.4381 21.6 14.2631 21.375 15.0881" stroke="white" stroke-width="2" stroke-miterlimit="10" stroke-linecap="round" stroke-linejoin="round"/>
<path d="M14.3251 3.08789C14.3251 3.08789 11.4751 4.58789 12.0001 7.88789C12.3001 9.83789 13.6501 10.5879 15.3751 10.4379C17.1001 10.2879 17.5501 11.7129 17.3251 12.5379C17.0251 13.7379 14.2501 15.0879 14.2501 15.0879" stroke="white" stroke-width="2" stroke-miterlimit="10" stroke-linecap="round" stroke-linejoin="round"/>
<path d="M6.22422 4.66309C6.22422 4.66309 8.09922 7.43809 7.19922 9.16309C6.14922 11.0381 4.94922 11.3381 2.32422 11.0381" stroke="white" stroke-width="2" stroke-miterlimit="10" stroke-linecap="round" stroke-linejoin="round"/>
<path d="M2.69922 15.5381C2.69922 15.5381 5.99922 16.5881 7.79922 15.7631C9.52422 15.0131 9.22422 21.8381 9.22422 21.8381" stroke="white" stroke-width="2" stroke-miterlimit="10" stroke-linecap="round" stroke-linejoin="round"/>
<path d="M21.75 18.5382L17.925 20.4882C17.475 20.7132 17.025 20.7132 16.575 20.4882L12.75 18.5382L16.575 16.5882C17.025 16.3632 17.475 16.3632 17.925 16.5882L21.75 18.5382Z" stroke="#DA246A" stroke-miterlimit="10" stroke-linecap="round" stroke-linejoin="round"/>
<path d="M19.5 19.6631V22.2881L18.825 22.6631C17.85 23.1881 16.65 23.1881 15.75 22.6631L15 22.2881V19.6631" stroke="#DA246A" stroke-miterlimit="10" stroke-linecap="round" stroke-linejoin="round"/>
<path d="M21.75 18.5381V20.7881" stroke="#DA246A" stroke-miterlimit="10" stroke-linecap="round" stroke-linejoin="round"/>
</svg>
