<svg width="40" height="40" viewBox="0 0 40 40" fill="none" xmlns="http://www.w3.org/2000/svg">
<path d="M27.5 27C26.075 26.1 25.25 23.7 25.25 22.05V18C25.25 15.075 22.925 12.75 20 12.75C17.075 12.75 14.75 15.075 14.75 18V22.05C14.75 23.775 13.925 26.1 12.5 27C14.075 27 20.15 27 24.125 27" stroke="white" stroke-width="2" stroke-miterlimit="10" stroke-linecap="round" stroke-linejoin="round"/>
<path d="M27.5 27C26.075 26.1 25.25 23.7 25.25 22.05V18C25.25 15.075 22.925 12.75 20 12.75C17.075 12.75 14.75 15.075 14.75 18V22.05C14.75 23.775 13.925 26.1 12.5 27C14.075 27 20.15 27 24.125 27" stroke="#0F0F0F" stroke-opacity="0.5" stroke-width="2" stroke-miterlimit="10" stroke-linecap="round" stroke-linejoin="round"/>
<path d="M20 12.7499V11.0249" stroke="white" stroke-width="2" stroke-miterlimit="10" stroke-linecap="round" stroke-linejoin="round"/>
<path d="M20 12.7499V11.0249" stroke="#0F0F0F" stroke-opacity="0.5" stroke-width="2" stroke-miterlimit="10" stroke-linecap="round" stroke-linejoin="round"/>
<path d="M18.5 30H21.5" stroke="#DA246A" stroke-width="2" stroke-miterlimit="10" stroke-linecap="round" stroke-linejoin="round"/>
</svg>
