<svg width="200" height="70" viewBox="0 0 200 70" fill="none" xmlns="http://www.w3.org/2000/svg">
<g clip-path="url(#clip0_2389_3751)">
<mask id="mask0_2389_3751" style="mask-type:luminance" maskUnits="userSpaceOnUse" x="10" y="20" width="180" height="30">
<path d="M190 20H10V49.538H190V20Z" fill="white"/>
</mask>
<g mask="url(#mask0_2389_3751)">
<path d="M70.0432 26.9209L64.4677 45.7309H60.9757L57.0247 31.4951L52.8307 45.7309L49.3657 45.7601L44.0332 26.9209H47.307L51.213 42.2411L55.434 26.9209H58.8877L62.8117 42.1601L66.7492 26.9209H70.0387H70.0432Z" fill="white"/>
<path d="M76.2137 29.4118V34.9333H82.7094V37.451H76.2137V43.2088H83.5217V45.7243H73.1289V26.894H83.5217V29.4118H76.2137Z" fill="white"/>
<path d="M100.488 37.6648C101.179 38.513 101.552 39.575 101.543 40.6685C101.557 41.5843 101.3 42.4843 100.805 43.2538C100.276 44.0503 99.5294 44.6803 98.6541 45.0673C97.6259 45.5285 96.5076 45.7535 95.3804 45.7288H87.8496V26.921H95.0226C96.1566 26.8918 97.2839 27.1123 98.3234 27.5713C99.1694 27.9425 99.8939 28.55 100.407 29.3173C100.875 30.0485 101.12 30.899 101.111 31.7653C101.145 32.7418 100.839 33.698 100.245 34.472C99.6374 35.2145 98.8296 35.7703 97.9184 36.0695C98.9444 36.263 99.8624 36.8323 100.488 37.667V37.6648ZM90.9344 34.823H94.7639C95.7719 34.823 96.5616 34.5935 97.1309 34.1345C97.7001 33.6755 97.9769 33.0095 97.9634 32.1343C97.9814 31.7608 97.9139 31.385 97.7676 31.0408C97.6191 30.6965 97.3941 30.3905 97.1106 30.1453C96.5436 29.6683 95.7539 29.4275 94.7436 29.4275H90.9366V34.823H90.9344ZM97.5651 42.4505C97.8644 42.1895 98.1006 41.8633 98.2536 41.4965C98.4089 41.1298 98.4786 40.7338 98.4584 40.3378C98.4764 39.9238 98.3999 39.512 98.2356 39.134C98.0714 38.7538 97.8239 38.4163 97.5111 38.1463C96.8789 37.604 96.0419 37.334 94.9956 37.334H90.9366V43.2065H95.1036C96.1499 43.2065 96.9711 42.9613 97.5674 42.4685V42.4505H97.5651Z" fill="white"/>
<path d="M109.189 44.6825C107.733 43.8748 106.525 42.6845 105.697 41.2378C104.855 39.7213 104.412 38.0135 104.412 36.2788C104.412 34.544 104.853 32.8363 105.697 31.3198C106.529 29.8843 107.735 28.7008 109.189 27.8976C110.676 27.0876 112.341 26.6646 114.033 26.6646C115.725 26.6646 117.39 27.0876 118.877 27.8976C120.329 28.6986 121.53 29.8821 122.356 31.3198C123.191 32.8408 123.627 34.5463 123.627 36.2788C123.627 38.0113 123.191 39.719 122.356 41.2378C121.535 42.6845 120.331 43.877 118.875 44.6825C117.388 45.4903 115.723 45.9156 114.031 45.9156C112.339 45.9156 110.674 45.4925 109.187 44.6825H109.189ZM117.35 42.3831C118.331 41.8071 119.125 40.9633 119.636 39.9463C120.18 38.8033 120.461 37.5523 120.461 36.2855C120.461 35.0188 120.18 33.7678 119.636 32.6248C119.123 31.6191 118.328 30.7821 117.35 30.2151C116.326 29.6638 115.183 29.3758 114.022 29.3758C112.861 29.3758 111.716 29.6638 110.692 30.2151C109.713 30.7798 108.919 31.6168 108.404 32.6248C107.861 33.7678 107.58 35.0188 107.58 36.2855C107.58 37.5523 107.861 38.8033 108.404 39.9463C108.917 40.9611 109.711 41.8071 110.692 42.3831C111.713 42.941 112.856 43.2336 114.022 43.2336C115.187 43.2336 116.33 42.941 117.35 42.3831Z" fill="white"/>
<path d="M136.971 45.7289L132.653 38.2049H130.299V45.7289H127.201V26.9212H133.697C134.961 26.8829 136.217 27.1439 137.362 27.6794C138.294 28.1227 139.074 28.8269 139.608 29.7089C140.105 30.5729 140.361 31.5539 140.346 32.5507C140.361 33.7477 139.992 34.9199 139.295 35.8942C138.582 36.8954 137.486 37.5772 136.008 37.9372L140.663 45.7312H136.971V45.7289ZM130.286 35.7434H133.697C134.844 35.7434 135.715 35.4554 136.307 34.8772C136.606 34.5712 136.838 34.2044 136.989 33.8039C137.139 33.4034 137.207 32.9759 137.187 32.5484C137.187 31.5742 136.899 30.8114 136.32 30.2624C135.742 29.7134 134.867 29.4344 133.695 29.4254H130.284V35.7412L130.286 35.7434Z" fill="white"/>
<path d="M147.932 26.9209V45.7286H144.848V26.9209H147.932Z" fill="white"/>
<path d="M156.273 44.6824C154.815 43.8747 153.609 42.6844 152.781 41.2377C151.937 39.7212 151.494 38.0134 151.494 36.2787C151.494 34.5439 151.937 32.8362 152.781 31.3197C153.616 29.8887 154.822 28.7119 156.273 27.9132C157.76 27.1054 159.425 26.6802 161.117 26.6802C162.809 26.6802 164.474 27.1032 165.962 27.9132C167.413 28.7142 168.614 29.8977 169.438 31.3354C170.273 32.8564 170.709 34.5619 170.709 36.2944C170.709 38.0269 170.273 39.7347 169.438 41.2534C168.619 42.7002 167.415 43.8927 165.962 44.6982C164.474 45.5037 162.807 45.9267 161.115 45.9244C159.423 45.9222 157.758 45.4947 156.273 44.6847V44.6824ZM164.432 42.3829C165.413 41.8069 166.207 40.9609 166.72 39.9462C167.262 38.8009 167.543 37.5522 167.543 36.2854C167.543 35.0187 167.262 33.7677 166.72 32.6247C166.205 31.6189 165.41 30.7819 164.432 30.2149C163.408 29.6637 162.265 29.3757 161.104 29.3757C159.943 29.3757 158.798 29.6637 157.774 30.2149C156.795 30.7797 156.001 31.6167 155.488 32.6247C154.943 33.7677 154.662 35.0187 154.662 36.2854C154.662 37.5522 154.946 38.8032 155.488 39.9462C155.999 40.9609 156.793 41.8069 157.774 42.3829C158.795 42.9409 159.938 43.2334 161.104 43.2334C162.269 43.2334 163.412 42.9409 164.432 42.3829Z" fill="white"/>
<path d="M189.733 45.7288H186.657L177.374 31.682V45.7288H174.289V26.894H177.374L186.657 40.9183V26.894H189.733V45.7288Z" fill="white"/>
<path d="M25.3538 21.1543C26.0895 21.1543 26.8073 21.386 27.4013 21.818L32.583 25.5642C33.0488 26.0278 33.375 26.6128 33.5258 27.2517C33.6765 27.8908 33.645 28.559 33.4358 29.1823V29.2003L33.114 30.1295L26.472 25.292L23.5403 23.1635C23.1803 22.9025 22.7978 22.6753 22.395 22.484L23.3333 21.8068C23.9273 21.3748 24.6428 21.1408 25.3785 21.143M25.3785 20C24.4065 20 23.4593 20.3105 22.6718 20.882L20.109 22.7338C20.0865 22.7495 20.0685 22.7743 20.0573 22.799C20.0483 22.826 20.046 22.8553 20.0528 22.8823C20.0595 22.9093 20.0753 22.9363 20.0955 22.9543C20.1158 22.9745 20.1428 22.9858 20.172 22.9903C21.1508 23.1298 22.08 23.5078 22.8788 24.0883L25.779 26.228L33.528 31.8597C33.5528 31.8778 33.582 31.8868 33.6113 31.8868C33.6405 31.8868 33.6698 31.8778 33.6945 31.8597C33.7193 31.8418 33.7373 31.8193 33.7463 31.79L34.509 29.576V29.5535C34.7948 28.712 34.8353 27.8075 34.6238 26.9435C34.4123 26.0795 33.9578 25.2965 33.3143 24.6823L28.0718 20.891C27.282 20.3173 26.3303 20.009 25.3538 20.009L25.3763 20H25.3785Z" fill="white"/>
<path d="M19.2655 25.5147C20.008 25.5124 20.7302 25.7464 21.3287 26.1829L22.1905 26.8084L12.7315 33.6799C12.3557 33.9522 12.007 34.2604 11.692 34.6002L11.3252 33.4774L11.3027 33.4009V33.3289C11.3027 33.3042 11.287 33.2772 11.2825 33.2524V33.1579C11.2825 33.1287 11.2825 33.0972 11.2645 33.0679C11.1295 32.4177 11.1835 31.7427 11.4175 31.1239C11.6515 30.5029 12.0587 29.9629 12.5875 29.5624L17.6455 25.9039C18.1427 25.6474 18.6917 25.5124 19.252 25.5124M19.252 24.3694C18.478 24.3694 17.7175 24.5629 17.038 24.9297L11.917 28.6354C11.206 29.1552 10.657 29.8639 10.3307 30.6807C10.0067 31.4997 9.91672 32.3929 10.0787 33.2592C10.0787 33.3019 10.0967 33.3424 10.1057 33.3852C10.1147 33.4279 10.117 33.4414 10.126 33.4684V33.4932C10.1372 33.5427 10.1507 33.5899 10.1665 33.6394L10.189 33.7159V33.7519C10.198 33.7744 10.2047 33.7969 10.2115 33.8172L11.2105 36.8749C11.2172 36.9019 11.233 36.9267 11.2577 36.9469C11.2802 36.9649 11.3072 36.9762 11.3365 36.9784C11.3657 36.9807 11.395 36.9739 11.4197 36.9582C11.4445 36.9424 11.4647 36.9222 11.476 36.8952C11.9102 35.9839 12.5672 35.1987 13.3862 34.6069L23.959 26.9232C23.977 26.9097 23.9927 26.8917 24.0017 26.8737C24.013 26.8534 24.0175 26.8309 24.0175 26.8084C24.0175 26.7859 24.013 26.7634 24.0017 26.7432C23.9927 26.7229 23.977 26.7049 23.959 26.6914L21.9902 25.2537C21.1937 24.6777 20.2352 24.3672 19.252 24.3672H19.2542L19.252 24.3694Z" fill="white"/>
<path d="M15.7892 36.0696L19.4027 47.1981L19.4387 47.3083V47.3241C19.567 47.6908 19.7245 48.0463 19.909 48.3861H18.7277C17.9897 48.3861 17.272 48.1543 16.6757 47.7223C16.0795 47.2903 15.634 46.6783 15.4067 45.9786L13.573 40.3716C13.4065 39.6921 13.4447 38.9811 13.6832 38.3241C13.9217 37.6671 14.3492 37.0956 14.914 36.6816L15.787 36.0718L15.7892 36.0696ZM16.3135 34.3078C16.2842 34.3078 16.255 34.3168 16.2302 34.3348L14.2615 35.7703C13.51 36.3216 12.9407 37.0843 12.6257 37.9596C12.3107 38.8371 12.2635 39.7866 12.493 40.6911L14.3132 46.3318C14.6147 47.2633 15.2042 48.0733 15.9985 48.6493C16.7905 49.2231 17.7445 49.5336 18.7232 49.5313H21.8957C21.9227 49.5313 21.952 49.5223 21.9745 49.5066C21.997 49.4908 22.015 49.4683 22.0262 49.4413C22.0375 49.4143 22.0397 49.3873 22.0352 49.3581C22.0307 49.3311 22.0172 49.3041 21.997 49.2838C21.331 48.6268 20.827 47.8281 20.521 46.9438L20.4805 46.8336L16.4372 34.3978C16.4282 34.3686 16.4102 34.3438 16.3832 34.3258C16.3585 34.3078 16.3292 34.2988 16.2977 34.2988L16.3112 34.3078H16.3135Z" fill="white"/>
<path d="M35.6558 44.8916L35.3025 45.9784C35.0753 46.6804 34.632 47.2901 34.0358 47.7244C33.4395 48.1564 32.7218 48.3904 31.9838 48.3881H25.5623C24.9683 48.2666 24.417 47.9944 23.9603 47.5961C23.5035 47.1979 23.157 46.6894 22.9545 46.1179L22.6013 45.0244H34.2923C34.7513 45.0244 35.208 44.9794 35.658 44.8916H35.6558ZM37.2398 43.1299C37.215 43.1299 37.1925 43.1366 37.17 43.1479C36.2858 43.6294 35.2958 43.8836 34.2878 43.8859H21.2198C21.1973 43.8859 21.1748 43.8904 21.1545 43.9016C21.1343 43.9129 21.1163 43.9264 21.1028 43.9444C21.0893 43.9624 21.0803 43.9826 21.078 44.0051C21.0735 44.0276 21.078 44.0501 21.0825 44.0704L21.8678 46.4869C22.14 47.2676 22.6148 47.9629 23.247 48.5006C23.877 49.0361 24.6398 49.3961 25.4565 49.5379H31.9838C32.9625 49.5379 33.9165 49.2296 34.7085 48.6559C35.5005 48.0821 36.09 47.2699 36.3915 46.3406L37.3748 43.3234C37.3815 43.3009 37.3838 43.2784 37.3793 43.2581C37.3748 43.2356 37.368 43.2154 37.3545 43.1974C37.341 43.1794 37.323 43.1636 37.305 43.1546C37.2848 43.1434 37.2623 43.1389 37.2398 43.1389V43.1321V43.1299Z" fill="white"/>
<path d="M37.2813 28.9661L38.1093 29.5646C38.6178 29.9336 39.016 30.4286 39.2658 31.0046C39.5155 31.5784 39.6055 32.2106 39.529 32.8316V32.8541C39.529 32.8541 39.529 32.8631 39.529 32.8654L39.5133 32.9599V33.0364C39.5133 33.0611 39.502 33.0926 39.4953 33.1219V33.2186C39.4953 33.2501 39.4795 33.2816 39.4705 33.3176L39.4548 33.3671V33.4121L39.4413 33.4459L39.196 34.1839L37.5985 39.0731C37.3375 39.7256 36.8875 40.2859 36.307 40.6796C35.7265 41.0734 35.0403 41.2871 34.336 41.2871H33.2155L36.9415 30.4489V30.3881C37.099 29.9269 37.2093 29.4521 37.2678 28.9684M36.2305 26.8354C36.2103 26.8354 36.19 26.8399 36.1698 26.8489C36.1518 26.8579 36.1338 26.8714 36.1203 26.8871C36.1068 26.9029 36.0978 26.9209 36.091 26.9411C36.0865 26.9614 36.0843 26.9816 36.0888 27.0019C36.2665 28.0099 36.1878 29.0494 35.857 30.0191V30.0439L31.6248 42.2614C31.618 42.2839 31.6158 42.3064 31.618 42.3289C31.6203 42.3514 31.6293 42.3739 31.6428 42.3919C31.6563 42.4099 31.6743 42.4256 31.6945 42.4369C31.7148 42.4481 31.7373 42.4526 31.7598 42.4526H34.2843C35.2248 42.4504 36.1405 42.1624 36.9168 41.6314C37.6908 41.0981 38.287 40.3444 38.6268 39.4691L40.231 34.5484L40.4763 33.8104L40.4988 33.7451V33.7091L40.5213 33.6304C40.537 33.5741 40.5505 33.5246 40.564 33.4751V33.4639C40.564 33.4369 40.5753 33.4076 40.5843 33.3784C40.591 33.3491 40.6023 33.2974 40.609 33.2546C40.6158 33.2141 40.609 33.1826 40.6293 33.1489L40.6473 33.0431V32.9666C40.7508 32.1409 40.6293 31.3039 40.2985 30.5411C39.9678 29.7784 39.4368 29.1191 38.764 28.6309L36.3048 26.8579C36.28 26.8399 36.2508 26.8286 36.2215 26.8286L36.2328 26.8399L36.2305 26.8354Z" fill="white"/>
<path fill-rule="evenodd" clip-rule="evenodd" d="M33.2641 33.2861L25.3576 27.5396L17.5254 33.2276L20.5179 42.4346H30.0984L33.2641 33.2861ZM22.0614 33.8576H22.9209L23.7714 36.6678L23.3664 37.8986L22.0636 33.8576H22.0614ZM26.8156 36.6611L27.6661 33.8576H28.5301L27.2229 37.8896L26.8134 36.6588L26.8156 36.6611ZM26.6784 36.9941L26.6964 37.0571H26.7009L27.1036 38.2878H26.2914L25.2924 35.1378L24.3091 38.2878H23.5014L23.9041 37.0571L23.9649 36.8276L24.8671 33.8576H25.7266L26.6761 36.9918L26.6784 36.9941Z" fill="white"/>
</g>
</g>
<defs>
<clipPath id="clip0_2389_3751">
<rect width="180" height="29.538" fill="white" transform="translate(10 20)"/>
</clipPath>
</defs>
</svg>
